
<svg width="17" height="17" viewBox="0 0 19 19" fill="none" xmlns="http://www.w3.org/2000/svg">
<path d="M5.33321 0.125H3.24988C2.42108 0.125 1.62622 0.45424 1.04017 1.04029C0.454118 1.62634 0.124878 2.4212 0.124878 3.25V5.33333C0.124878 6.16213 0.454118 6.95699 1.04017 7.54304C1.62622 8.12909 2.42108 8.45833 3.24988 8.45833H5.33321C6.16201 8.45833 6.95687 8.12909 7.54292 7.54304C8.12897 6.95699 8.45821 6.16213 8.45821 5.33333V3.25C8.45821 2.4212 8.12897 1.62634 7.54292 1.04029C6.95687 0.45424 6.16201 0.125 5.33321 0.125ZM6.37488 5.33333C6.37488 5.6096 6.26513 5.87455 6.06978 6.0699C5.87443 6.26525 5.60948 6.375 5.33321 6.375H3.24988C2.97361 6.375 2.70866 6.26525 2.51331 6.0699C2.31796 5.87455 2.20821 5.6096 2.20821 5.33333V3.25C2.20821 2.97373 2.31796 2.70878 2.51331 2.51343C2.70866 2.31808 2.97361 2.20833 3.24988 2.20833H5.33321C5.60948 2.20833 5.87443 2.31808 6.06978 2.51343C6.26513 2.70878 6.37488 2.97373 6.37488 3.25V5.33333ZM5.33321 10.5417H3.24988C2.42108 10.5417 1.62622 10.8709 1.04017 11.457C0.454118 12.043 0.124878 12.8379 0.124878 13.6667V15.75C0.124878 16.5788 0.454118 17.3737 1.04017 17.9597C1.62622 18.5458 2.42108 18.875 3.24988 18.875H5.33321C6.16201 18.875 6.95687 18.5458 7.54292 17.9597C8.12897 17.3737 8.45821 16.5788 8.45821 15.75V13.6667C8.45821 12.8379 8.12897 12.043 7.54292 11.457C6.95687 10.8709 6.16201 10.5417 5.33321 10.5417ZM6.37488 15.75C6.37488 16.0263 6.26513 16.2912 6.06978 16.4866C5.87443 16.6819 5.60948 16.7917 5.33321 16.7917H3.24988C2.97361 16.7917 2.70866 16.6819 2.51331 16.4866C2.31796 16.2912 2.20821 16.0263 2.20821 15.75V13.6667C2.20821 13.3904 2.31796 13.1254 2.51331 12.9301C2.70866 12.7347 2.97361 12.625 3.24988 12.625H5.33321C5.60948 12.625 5.87443 12.7347 6.06978 12.9301C6.26513 13.1254 6.37488 13.3904 6.37488 13.6667V15.75ZM15.7499 0.125H13.6665C12.8377 0.125 12.0429 0.45424 11.4568 1.04029C10.8708 1.62634 10.5415 2.4212 10.5415 3.25V5.33333C10.5415 6.16213 10.8708 6.95699 11.4568 7.54304C12.0429 8.12909 12.8377 8.45833 13.6665 8.45833H15.7499C16.5787 8.45833 17.3735 8.12909 17.9596 7.54304C18.5456 6.95699 18.8749 6.16213 18.8749 5.33333V3.25C18.8749 2.4212 18.5456 1.62634 17.9596 1.04029C17.3735 0.45424 16.5787 0.125 15.7499 0.125ZM16.7915 5.33333C16.7915 5.6096 16.6818 5.87455 16.4864 6.0699C16.2911 6.26525 16.0261 6.375 15.7499 6.375H13.6665C13.3903 6.375 13.1253 6.26525 12.93 6.0699C12.7346 5.87455 12.6249 5.6096 12.6249 5.33333V3.25C12.6249 2.97373 12.7346 2.70878 12.93 2.51343C13.1253 2.31808 13.3903 2.20833 13.6665 2.20833H15.7499C16.0261 2.20833 16.2911 2.31808 16.4864 2.51343C16.6818 2.70878 16.7915 2.97373 16.7915 3.25V5.33333ZM15.7499 10.5417H13.6665C12.8377 10.5417 12.0429 10.8709 11.4568 11.457C10.8708 12.043 10.5415 12.8379 10.5415 13.6667V15.75C10.5415 16.5788 10.8708 17.3737 11.4568 17.9597C12.0429 18.5458 12.8377 18.875 13.6665 18.875H15.7499C16.5787 18.875 17.3735 18.5458 17.9596 17.9597C18.5456 17.3737 18.8749 16.5788 18.8749 15.75V13.6667C18.8749 12.8379 18.5456 12.043 17.9596 11.457C17.3735 10.8709 16.5787 10.5417 15.7499 10.5417ZM16.7915 15.75C16.7915 16.0263 16.6818 16.2912 16.4864 16.4866C16.2911 16.6819 16.0261 16.7917 15.7499 16.7917H13.6665C13.3903 16.7917 13.1253 16.6819 12.93 16.4866C12.7346 16.2912 12.6249 16.0263 12.6249 15.75V13.6667C12.6249 13.3904 12.7346 13.1254 12.93 12.9301C13.1253 12.7347 13.3903 12.625 13.6665 12.625H15.7499C16.0261 12.625 16.2911 12.7347 16.4864 12.9301C16.6818 13.1254 16.7915 13.3904 16.7915 13.6667V15.75Z" fill="white"/>
</svg>
