<svg width="19" height="19" viewBox="0 0 19 19" fill="none" xmlns="http://www.w3.org/2000/svg">
<path d="M9.5 0.75C7.76942 0.75 6.07769 1.26318 4.63876 2.22464C3.19983 3.1861 2.07832 4.55267 1.41606 6.15152C0.753791 7.75037 0.580512 9.50971 0.918133 11.207C1.25575 12.9044 2.08911 14.4635 3.31282 15.6872C4.53653 16.9109 6.09563 17.7443 7.79296 18.0819C9.4903 18.4195 11.2496 18.2462 12.8485 17.5839C14.4473 16.9217 15.8139 15.8002 16.7754 14.3612C17.7368 12.9223 18.25 11.2306 18.25 9.5C18.25 8.35093 18.0237 7.21312 17.584 6.15152C17.1442 5.08992 16.4997 4.12533 15.6872 3.31282C14.8747 2.5003 13.9101 1.85578 12.8485 1.41605C11.7869 0.976325 10.6491 0.75 9.5 0.75V0.75ZM9.5 16.5C8.11554 16.5 6.76216 16.0895 5.61101 15.3203C4.45987 14.5511 3.56266 13.4579 3.03285 12.1788C2.50303 10.8997 2.36441 9.49224 2.63451 8.13437C2.9046 6.7765 3.57129 5.52922 4.55026 4.55025C5.52922 3.57129 6.77651 2.9046 8.13437 2.6345C9.49224 2.36441 10.8997 2.50303 12.1788 3.03284C13.4579 3.56266 14.5511 4.45986 15.3203 5.61101C16.0895 6.76215 16.5 8.11553 16.5 9.5C16.5 11.3565 15.7625 13.137 14.4498 14.4497C13.137 15.7625 11.3565 16.5 9.5 16.5V16.5ZM5.5625 7.75C5.5625 7.49041 5.63948 7.23665 5.7837 7.02081C5.92792 6.80498 6.1329 6.63675 6.37273 6.53741C6.61256 6.43807 6.87646 6.41208 7.13106 6.46272C7.38566 6.51336 7.61953 6.63837 7.80308 6.82192C7.98664 7.00548 8.11164 7.23934 8.16228 7.49394C8.21293 7.74854 8.18694 8.01244 8.0876 8.25227C7.98826 8.4921 7.82003 8.69709 7.60419 8.8413C7.38835 8.98552 7.13459 9.0625 6.875 9.0625C6.52691 9.0625 6.19307 8.92422 5.94693 8.67808C5.70078 8.43194 5.5625 8.0981 5.5625 7.75ZM13.4375 7.75C13.4375 8.00959 13.3605 8.26335 13.2163 8.47919C13.0721 8.69503 12.8671 8.86325 12.6273 8.96259C12.3874 9.06193 12.1235 9.08792 11.8689 9.03728C11.6143 8.98664 11.3805 8.86163 11.1969 8.67808C11.0134 8.49452 10.8884 8.26066 10.8377 8.00606C10.7871 7.75146 10.8131 7.48756 10.9124 7.24773C11.0118 7.0079 11.18 6.80292 11.3958 6.6587C11.6117 6.51448 11.8654 6.4375 12.125 6.4375C12.4731 6.4375 12.8069 6.57578 13.0531 6.82192C13.2992 7.06806 13.4375 7.4019 13.4375 7.75ZM12.7638 10.7163C12.8515 10.7722 12.9272 10.845 12.9866 10.9304C13.0461 11.0158 13.088 11.1122 13.1099 11.2139C13.1319 11.3156 13.1335 11.4206 13.1146 11.5229C13.0958 11.6253 13.0568 11.7228 13 11.81C12.6176 12.3803 12.1006 12.8476 11.4948 13.1708C10.889 13.494 10.2129 13.663 9.52625 13.663C8.83962 13.663 8.16354 13.494 7.55771 13.1708C6.95188 12.8476 6.43493 12.3803 6.0525 11.81C5.99447 11.7244 5.95387 11.6282 5.93302 11.5269C5.91217 11.4256 5.91147 11.3212 5.93097 11.2196C5.95047 11.1181 5.98979 11.0213 6.04667 10.935C6.10356 10.8486 6.1769 10.7743 6.2625 10.7163C6.34825 10.6575 6.4449 10.6165 6.54674 10.5956C6.64859 10.5748 6.75357 10.5746 6.85551 10.595C6.95745 10.6154 7.05427 10.6559 7.14027 10.7143C7.22627 10.7727 7.29971 10.8478 7.35625 10.935C7.5957 11.296 7.92076 11.5921 8.30245 11.7969C8.68413 12.0018 9.11058 12.109 9.54375 12.109C9.97693 12.109 10.4034 12.0018 10.7851 11.7969C11.1667 11.5921 11.4918 11.296 11.7313 10.935C11.8445 10.7756 12.0135 10.6646 12.2048 10.624C12.3961 10.5835 12.5956 10.6164 12.7638 10.7163Z" fill="white"/>
</svg>