
<svg width="19" height="18" viewBox="0 0 19 18" fill="none" xmlns="http://www.w3.org/2000/svg">
<path d="M17.9962 12.5748L13.7962 8.58312L16.7537 5.76645C17.2453 5.2977 17.5214 4.66229 17.5214 3.99979C17.5214 3.33728 17.2453 2.70187 16.7537 2.23312V2.23312L16.6049 2.09145C16.1128 1.62328 15.4456 1.36032 14.7499 1.36032C14.0543 1.36032 13.3871 1.62328 12.8949 2.09145L9.93745 4.90812L5.7462 0.90812C5.66485 0.830013 5.56808 0.768017 5.46145 0.72571C5.35482 0.683403 5.24046 0.661621 5.12495 0.661621C5.00944 0.661621 4.89507 0.683403 4.78844 0.72571C4.68182 0.768017 4.58504 0.830013 4.5037 0.90812L1.0037 4.24145C0.921684 4.31892 0.856589 4.41109 0.812167 4.51264C0.767744 4.61419 0.744873 4.72311 0.744873 4.83312C0.744873 4.94313 0.767744 5.05205 0.812167 5.1536C0.856589 5.25515 0.921684 5.34732 1.0037 5.42479L5.2037 9.41645L2.7537 11.7415C2.64178 11.8498 2.56311 11.9852 2.5262 12.1331L1.6512 15.4665C1.60954 15.6073 1.60757 15.7562 1.64548 15.898C1.6834 16.0398 1.75986 16.1696 1.86718 16.2744C1.9745 16.3791 2.10889 16.4551 2.25684 16.4947C2.40478 16.5342 2.56106 16.536 2.70995 16.4998L6.20995 15.6665C6.36521 15.6313 6.50743 15.5564 6.6212 15.4498L9.06245 13.1165L13.2537 17.1165C13.335 17.1946 13.4318 17.2566 13.5384 17.2989C13.6451 17.3412 13.7594 17.363 13.8749 17.363C13.9905 17.363 14.1048 17.3412 14.2115 17.2989C14.3181 17.2566 14.4149 17.1946 14.4962 17.1165L17.9962 13.7831C18.0782 13.7057 18.1433 13.6135 18.1877 13.5119C18.2321 13.4104 18.255 13.3015 18.255 13.1915C18.255 13.0814 18.2321 12.9725 18.1877 12.871C18.1433 12.7694 18.0782 12.6773 17.9962 12.5998V12.5748ZM14.1287 3.26645C14.21 3.18835 14.3068 3.12635 14.4134 3.08404C14.5201 3.04174 14.6344 3.01995 14.7499 3.01995C14.8655 3.01995 14.9798 3.04174 15.0865 3.08404C15.1931 3.12635 15.2899 3.18835 15.3712 3.26645L15.5199 3.40812C15.602 3.48559 15.6671 3.57776 15.7115 3.67931C15.7559 3.78086 15.7788 3.88978 15.7788 3.99979C15.7788 4.1098 15.7559 4.21872 15.7115 4.32027C15.6671 4.42182 15.602 4.51398 15.5199 4.59145L14.7499 5.32479L13.3587 3.99979L14.1287 3.26645ZM12.1249 5.17479L13.5162 6.49979L12.5624 7.40812L11.1712 6.08312L12.1249 5.17479ZM5.5537 14.0831L3.6987 14.5248L4.16245 12.7581L6.43745 10.5915L7.8287 11.9165L5.5537 14.0831ZM13.8749 15.3248L2.8587 4.83312L5.12495 2.67479L6.0787 3.58312L5.3787 4.24145C5.29711 4.31915 5.2324 4.41139 5.18824 4.51291C5.14409 4.61443 5.12137 4.72324 5.12137 4.83312C5.12137 4.943 5.14409 5.05181 5.18824 5.15333C5.2324 5.25485 5.29711 5.34709 5.3787 5.42479C5.46028 5.50249 5.55713 5.56412 5.66373 5.60617C5.77032 5.64822 5.88457 5.66986 5.99995 5.66986C6.11532 5.66986 6.22957 5.64822 6.33617 5.60617C6.44276 5.56412 6.53961 5.50249 6.6212 5.42479L7.31245 4.75812L8.7037 6.08312L8.0037 6.74145C7.83893 6.89837 7.74637 7.1112 7.74637 7.33312C7.74637 7.55504 7.83893 7.76787 8.0037 7.92479C8.16846 8.08171 8.39193 8.16986 8.62495 8.16986C8.85796 8.16986 9.08143 8.08171 9.2462 7.92479L9.93745 7.25812L11.3287 8.58312L10.6287 9.24145C10.4639 9.39837 10.3714 9.6112 10.3714 9.83312C10.3714 10.055 10.4639 10.2679 10.6287 10.4248C10.7935 10.5817 11.0169 10.6699 11.2499 10.6699C11.483 10.6699 11.7064 10.5817 11.8712 10.4248L12.5624 9.75812L13.9537 11.0831L13.2537 11.7415C13.0889 11.8984 12.9964 12.1112 12.9964 12.3331C12.9964 12.555 13.0889 12.7679 13.2537 12.9248C13.4185 13.0817 13.6419 13.1699 13.8749 13.1699C14.108 13.1699 14.3314 13.0817 14.4962 12.9248L15.1874 12.2581L16.1412 13.1665L13.8749 15.3248Z" fill="white"/>
</svg>
