<svg width="24" height="24" viewBox="0 0 24 24" fill="none" xmlns="http://www.w3.org/2000/svg">
<path d="M13.0031 16.453L11.2031 21.3374C11.1498 21.4809 11.0539 21.6047 10.9282 21.6921C10.8025 21.7795 10.6531 21.8264 10.5 21.8264C10.3469 21.8264 10.1974 21.7795 10.0717 21.6921C9.94605 21.6047 9.85013 21.4809 9.79685 21.3374L7.99685 16.453C7.95886 16.3499 7.89895 16.2563 7.82126 16.1786C7.74357 16.1009 7.64995 16.041 7.54685 16.003L2.66247 14.203C2.51894 14.1497 2.39515 14.0538 2.30773 13.9281C2.22032 13.8024 2.17346 13.653 2.17346 13.4999C2.17346 13.3467 2.22032 13.1973 2.30773 13.0716C2.39515 12.9459 2.51894 12.85 2.66247 12.7967L7.54685 10.9967C7.64995 10.9587 7.74357 10.8988 7.82126 10.8211C7.89895 10.7434 7.95886 10.6498 7.99685 10.5467L9.79685 5.66235C9.85013 5.51882 9.94605 5.39503 10.0717 5.30761C10.1974 5.2202 10.3469 5.17334 10.5 5.17334C10.6531 5.17334 10.8025 5.2202 10.9282 5.30761C11.0539 5.39503 11.1498 5.51882 11.2031 5.66235L13.0031 10.5467C13.0411 10.6498 13.101 10.7434 13.1787 10.8211C13.2564 10.8988 13.35 10.9587 13.4531 10.9967L18.3375 12.7967C18.481 12.85 18.6048 12.9459 18.6922 13.0716C18.7796 13.1973 18.8265 13.3467 18.8265 13.4999C18.8265 13.653 18.7796 13.8024 18.6922 13.9281C18.6048 14.0538 18.481 14.1497 18.3375 14.203L13.4531 16.003C13.35 16.041 13.2564 16.1009 13.1787 16.1786C13.101 16.2563 13.0411 16.3499 13.0031 16.453V16.453Z" stroke="white" strokeWidth="2" strokeLinecap="round" strokeLinejoin="round"/>
<path d="M16.5 1.5V6" stroke="white" strokeWidth="2" strokeLinecap="round" strokeLinejoin="round"/>
<path d="M18.75 3.75H14.25" stroke="white" strokeWidth="2" strokeLinecap="round" strokeLinejoin="round"/>
<path d="M21 6.75V9.75" stroke="white" strokeWidth="2" strokeLinecap="round" strokeLinejoin="round"/>
<path d="M22.5 8.25H19.5" stroke="white" strokeWidth="2" strokeLinecap="round" strokeLinejoin="round"/>
</svg>
