
<svg width="21" height="22" viewBox="0 0 21 22" fill="none" xmlns="http://www.w3.org/2000/svg">
<path d="M6.125 11.9167C6.81724 11.9167 7.49392 11.7016 8.0695 11.2987C8.64507 10.8958 9.09367 10.3232 9.35858 9.65317C9.62349 8.98318 9.6928 8.24593 9.55775 7.53467C9.4227 6.82341 9.08936 6.17007 8.59988 5.65728C8.11039 5.14448 7.48675 4.79527 6.80782 4.65379C6.12888 4.51231 5.42515 4.58492 4.78561 4.86244C4.14607 5.13996 3.59944 5.60993 3.21486 6.21291C2.83027 6.81589 2.625 7.5248 2.625 8.25C2.625 9.22246 2.99375 10.1551 3.65013 10.8427C4.3065 11.5304 5.19674 11.9167 6.125 11.9167ZM6.125 6.41667C6.47112 6.41667 6.80946 6.52419 7.09725 6.72564C7.38504 6.92709 7.60934 7.21342 7.74179 7.54842C7.87424 7.88341 7.9089 8.25204 7.84138 8.60767C7.77385 8.9633 7.60718 9.28997 7.36244 9.54636C7.1177 9.80276 6.80588 9.97737 6.46641 10.0481C6.12694 10.1188 5.77508 10.0825 5.4553 9.94378C5.13553 9.80502 4.86222 9.57004 4.66993 9.26855C4.47764 8.96706 4.375 8.6126 4.375 8.25C4.375 7.76377 4.55938 7.29746 4.88756 6.95364C5.21575 6.60982 5.66087 6.41667 6.125 6.41667ZM10.5 15.5833V17.4167C10.5 17.6598 10.4078 17.8929 10.2437 18.0649C10.0796 18.2368 9.85707 18.3333 9.625 18.3333C9.39294 18.3333 9.17038 18.2368 9.00628 18.0649C8.84219 17.8929 8.75 17.6598 8.75 17.4167V15.5833C8.75 15.3402 8.65781 15.1071 8.49372 14.9352C8.32963 14.7632 8.10707 14.6667 7.875 14.6667H4.375C4.14294 14.6667 3.92038 14.7632 3.75628 14.9352C3.59219 15.1071 3.5 15.3402 3.5 15.5833V17.4167C3.5 17.6598 3.40781 17.8929 3.24372 18.0649C3.07962 18.2368 2.85706 18.3333 2.625 18.3333C2.39294 18.3333 2.17038 18.2368 2.00628 18.0649C1.84219 17.8929 1.75 17.6598 1.75 17.4167V15.5833C1.75 14.854 2.02656 14.1545 2.51884 13.6388C3.01113 13.1231 3.67881 12.8333 4.375 12.8333H7.875C8.57119 12.8333 9.23887 13.1231 9.73116 13.6388C10.2234 14.1545 10.5 14.854 10.5 15.5833ZM14.875 10.0833C15.5672 10.0833 16.2439 9.86829 16.8195 9.46539C17.3951 9.06249 17.8437 8.48984 18.1086 7.81984C18.3735 7.14985 18.4428 6.4126 18.3078 5.70134C18.1727 4.99007 17.8394 4.33674 17.3499 3.82394C16.8604 3.31115 16.2368 2.96193 15.5578 2.82046C14.8789 2.67898 14.1752 2.75159 13.5356 3.02911C12.8961 3.30663 12.3494 3.7766 11.9649 4.37958C11.5803 4.98256 11.375 5.69147 11.375 6.41667C11.375 7.38913 11.7438 8.32176 12.4001 9.00939C13.0565 9.69703 13.9467 10.0833 14.875 10.0833ZM14.875 4.58333C15.2211 4.58333 15.5595 4.69086 15.8473 4.89231C16.135 5.09376 16.3593 5.38008 16.4918 5.71508C16.6242 6.05008 16.6589 6.4187 16.5914 6.77433C16.5239 7.12997 16.3572 7.45663 16.1124 7.71303C15.8677 7.96943 15.5559 8.14404 15.2164 8.21478C14.8769 8.28551 14.5251 8.24921 14.2053 8.11045C13.8855 7.97169 13.6122 7.7367 13.4199 7.43521C13.2276 7.13372 13.125 6.77927 13.125 6.41667C13.125 5.93044 13.3094 5.46412 13.6376 5.12031C13.9658 4.77649 14.4109 4.58333 14.875 4.58333ZM19.25 13.75V15.5833C19.25 15.8265 19.1578 16.0596 18.9937 16.2315C18.8296 16.4034 18.6071 16.5 18.375 16.5C18.1429 16.5 17.9204 16.4034 17.7563 16.2315C17.5922 16.0596 17.5 15.8265 17.5 15.5833V13.75C17.5 13.5069 17.4078 13.2737 17.2437 13.1018C17.0796 12.9299 16.8571 12.8333 16.625 12.8333H13.125C12.9747 12.8338 12.827 12.8749 12.6963 12.9525C12.5471 13.0393 12.4254 13.17 12.3463 13.3283C12.2944 13.4378 12.2223 13.5353 12.134 13.6151C12.0456 13.695 11.943 13.7555 11.832 13.7931C11.7211 13.8308 11.6041 13.8449 11.4879 13.8345C11.3716 13.8241 11.2586 13.7894 11.1553 13.7326C11.0521 13.6758 10.9607 13.5979 10.8866 13.5035C10.8125 13.4092 10.7572 13.3002 10.7238 13.1831C10.6905 13.0661 10.6798 12.9432 10.6925 12.8217C10.7051 12.7002 10.7408 12.5826 10.7975 12.4758C11.0352 12.0039 11.3964 11.6128 11.8388 11.3483C12.2319 11.1186 12.6748 10.9986 13.125 11H16.625C17.3212 11 17.9889 11.2897 18.4812 11.8055C18.9734 12.3212 19.25 13.0207 19.25 13.75Z" fill="white"/>
<path d="M6.125 11.9167C6.81724 11.9167 7.49392 11.7016 8.0695 11.2987C8.64507 10.8958 9.09367 10.3232 9.35858 9.65317C9.62349 8.98318 9.6928 8.24593 9.55775 7.53467C9.4227 6.82341 9.08936 6.17007 8.59988 5.65728C8.11039 5.14448 7.48675 4.79527 6.80782 4.65379C6.12888 4.51231 5.42515 4.58492 4.78561 4.86244C4.14607 5.13996 3.59944 5.60993 3.21486 6.21291C2.83027 6.81589 2.625 7.5248 2.625 8.25C2.625 9.22246 2.99375 10.1551 3.65013 10.8427C4.3065 11.5304 5.19674 11.9167 6.125 11.9167ZM6.125 6.41667C6.47112 6.41667 6.80946 6.52419 7.09725 6.72564C7.38504 6.92709 7.60934 7.21342 7.74179 7.54842C7.87424 7.88341 7.9089 8.25204 7.84138 8.60767C7.77385 8.9633 7.60718 9.28997 7.36244 9.54636C7.1177 9.80276 6.80588 9.97737 6.46641 10.0481C6.12694 10.1188 5.77508 10.0825 5.4553 9.94378C5.13553 9.80502 4.86222 9.57004 4.66993 9.26855C4.47764 8.96706 4.375 8.6126 4.375 8.25C4.375 7.76377 4.55938 7.29746 4.88756 6.95364C5.21575 6.60982 5.66087 6.41667 6.125 6.41667ZM10.5 15.5833V17.4167C10.5 17.6598 10.4078 17.8929 10.2437 18.0649C10.0796 18.2368 9.85707 18.3333 9.625 18.3333C9.39294 18.3333 9.17038 18.2368 9.00628 18.0649C8.84219 17.8929 8.75 17.6598 8.75 17.4167V15.5833C8.75 15.3402 8.65781 15.1071 8.49372 14.9352C8.32963 14.7632 8.10707 14.6667 7.875 14.6667H4.375C4.14294 14.6667 3.92038 14.7632 3.75628 14.9352C3.59219 15.1071 3.5 15.3402 3.5 15.5833V17.4167C3.5 17.6598 3.40781 17.8929 3.24372 18.0649C3.07962 18.2368 2.85706 18.3333 2.625 18.3333C2.39294 18.3333 2.17038 18.2368 2.00628 18.0649C1.84219 17.8929 1.75 17.6598 1.75 17.4167V15.5833C1.75 14.854 2.02656 14.1545 2.51884 13.6388C3.01113 13.1231 3.67881 12.8333 4.375 12.8333H7.875C8.57119 12.8333 9.23887 13.1231 9.73116 13.6388C10.2234 14.1545 10.5 14.854 10.5 15.5833ZM14.875 10.0833C15.5672 10.0833 16.2439 9.86829 16.8195 9.46539C17.3951 9.06249 17.8437 8.48984 18.1086 7.81984C18.3735 7.14985 18.4428 6.4126 18.3078 5.70134C18.1727 4.99007 17.8394 4.33674 17.3499 3.82394C16.8604 3.31115 16.2368 2.96193 15.5578 2.82046C14.8789 2.67898 14.1752 2.75159 13.5356 3.02911C12.8961 3.30663 12.3494 3.7766 11.9649 4.37958C11.5803 4.98256 11.375 5.69147 11.375 6.41667C11.375 7.38913 11.7438 8.32176 12.4001 9.00939C13.0565 9.69703 13.9467 10.0833 14.875 10.0833ZM14.875 4.58333C15.2211 4.58333 15.5595 4.69086 15.8473 4.89231C16.135 5.09376 16.3593 5.38008 16.4918 5.71508C16.6242 6.05008 16.6589 6.4187 16.5914 6.77433C16.5239 7.12997 16.3572 7.45663 16.1124 7.71303C15.8677 7.96943 15.5559 8.14404 15.2164 8.21478C14.8769 8.28551 14.5251 8.24921 14.2053 8.11045C13.8855 7.97169 13.6122 7.7367 13.4199 7.43521C13.2276 7.13372 13.125 6.77927 13.125 6.41667C13.125 5.93044 13.3094 5.46412 13.6376 5.12031C13.9658 4.77649 14.4109 4.58333 14.875 4.58333ZM19.25 13.75V15.5833C19.25 15.8265 19.1578 16.0596 18.9937 16.2315C18.8296 16.4034 18.6071 16.5 18.375 16.5C18.1429 16.5 17.9204 16.4034 17.7563 16.2315C17.5922 16.0596 17.5 15.8265 17.5 15.5833V13.75C17.5 13.5069 17.4078 13.2737 17.2437 13.1018C17.0796 12.9299 16.8571 12.8333 16.625 12.8333H13.125C12.9747 12.8338 12.827 12.8749 12.6963 12.9525C12.5471 13.0393 12.4254 13.17 12.3463 13.3283C12.2944 13.4378 12.2223 13.5353 12.134 13.6151C12.0456 13.695 11.943 13.7555 11.832 13.7931C11.7211 13.8308 11.6041 13.8449 11.4879 13.8345C11.3716 13.8241 11.2586 13.7894 11.1553 13.7326C11.0521 13.6758 10.9607 13.5979 10.8866 13.5035C10.8125 13.4092 10.7572 13.3002 10.7238 13.1831C10.6905 13.0661 10.6798 12.9432 10.6925 12.8217C10.7051 12.7002 10.7408 12.5826 10.7975 12.4758C11.0352 12.0039 11.3964 11.6128 11.8388 11.3483C12.2319 11.1186 12.6748 10.9986 13.125 11H16.625C17.3212 11 17.9889 11.2897 18.4812 11.8055C18.9734 12.3212 19.25 13.0207 19.25 13.75Z" fill="white"/>
</svg>
